<!-- icon666.com - MILLIONS vector ICONS FREE --><svg id="icons" enable-background="new 0 0 64 64" viewBox="0 0 64 64" xmlns="http://www.w3.org/2000/svg"><path d="m29 1.506v7.01 14.002 4.009l12-.021 6 2v-2h3v-25z" fill="#e6e9ed"></path><path d="m29 8.516v13h-.01l-6.99-.01-5 2v-2h-3v-12.99h14.99z" fill="#ccd1d9"></path><path d="m5 35.496c0-1.65 1.35-3 3-3v6 .01c0 1.65-1.34 3-3 3z" fill="#e9573f"></path><path d="m26 40.016v8.51c0-2.379-1.19-4.48-3-5.74v-.01c-1.13-.789-2.51-1.25-4-1.25v-.02h-8v-.01c-1.65 0-2.99-1.33-3-2.99v-.01-6c1.91-1.939 4.57-2.98 7.5-2.98 5.8 0 10.5 4.701 10.5 10.5z" fill="#fc6e51"></path><path d="m15.5 29.516c-.527 0-1.042.047-1.55.113 5.11.709 9.047 5.082 9.047 10.387v2.758s.002.002.003.002v.01c1.81 1.26 3 3.361 3 5.74v-8.51c0-5.799-4.7-10.5-10.5-10.5z" fill="#e9573f"></path><path d="m23 42.785v1.721c0 3.529-2.04 6.59-5 8.061-1.2.6-2.57.939-4 .939s-2.8-.34-4-.939c-2.96-1.471-5-4.531-5-8.061v-3c1.66 0 3-1.35 3-3 .01 1.66 1.35 2.99 3 2.99v.01h8v.02c1.49 0 2.87.461 4 1.25z" fill="#eac6bb"></path><path d="m19.997 41.604v2.902c0 3.529-2.04 6.59-5 8.061-.771.385-1.616.648-2.499.799.491.082.99.141 1.502.141 1.43 0 2.8-.34 4-.939 2.96-1.471 5-4.531 5-8.061v-1.721-.01c-.873-.61-1.896-1.016-3.003-1.172z" fill="#d3b1a9"></path><path d="m18 55.504v.012l-4 4.988-4-5v-2.938c1.2.6 2.57.939 4 .939s2.8-.34 4-.939z" fill="#eac6bb"></path><path d="m26 62.494h-24v-1.99c0-2.77 2.24-5 5-5h3l4 5 4-4.988v-.012h3c2.77 0 5 2.23 5 5z" fill="#a0d468"></path><path d="m21 55.504h-3c2.769.002 4.997 2.232 4.997 5v1.99h3.003v-1.99c0-2.77-2.23-5-5-5z" fill="#8cc152"></path><path d="m50 55.504 2 1 2-1h3c2.77 0 5 2.24 5 5v1.99h-24v-1.99c0-2.76 2.24-5 5-5h3l2 1z" fill="#5d9cec"></path><path d="m57 55.504h-3c2.768.002 4.997 2.242 4.997 5v1.99h3.003v-1.99c0-2.76-2.23-5-5-5z" fill="#4a89dc"></path><path d="m59 40.006v1.211c-1.95-2.541-3.36-3.092-5-2.881l3-4.16c1.26 1.609 2 3.631 2 5.83z" fill="#f6bb42"></path><path d="m59 41.217v3.289c0 3.529-2.04 6.59-5 8.061-1.2.6-2.57.939-4 .939s-2.8-.34-4-.939c-2.96-1.471-5-4.531-5-8.061v-.039-4.32c7.09.869 10.34-1.471 13-1.811 1.64-.211 3.05.34 5 2.881z" fill="#eac6bb"></path><path d="m55.997 38.576v5.93c0 3.529-2.04 6.59-5 8.061-.771.385-1.616.648-2.499.799.491.082.99.141 1.502.141 1.43 0 2.8-.34 4-.939 2.96-1.471 5-4.531 5-8.061v-3.289c-1.134-1.478-2.083-2.269-3.003-2.642z" fill="#d3b1a9"></path><path d="m57 34.176-3 4.16c-2.66.34-5.91 2.68-13 1.811-.32-.041-.66-.09-1-.141 0-5.25 4.25-9.5 9.5-9.5 3.05 0 5.77 1.439 7.5 3.67z" fill="#ffce54"></path><path d="m50 53.506c1.43 0 2.8-.34 4-.939v2.938l-2 1-2-1-2 1-2-1v-2.938c1.2.599 2.57.939 4 .939z" fill="#87bcf4"></path><path d="m44.99 20.506c0 1.102-.9 2-2 2h-6c-1.101 0-2-.898-2-2v-3.01c0 1.102.899 2 2 2h6c1.1 0 2-.898 2-2z" fill="#545c66"></path><path d="m44.99 12.506v4.99c0 1.102-.9 2-2 2h-6c-1.101 0-2-.898-2-2v-4.99-5.01c0-1.09.899-2 2-2h6c1.1 0 2 .91 2 2z" fill="#5d9cec"></path><g style="fill:none;stroke:#000;stroke-width:2;stroke-linecap:round;stroke-linejoin:round;stroke-miterlimit:10"><path d=""></path><path d=""></path><path d=""></path></g><path d="m50.03 60.498c-.553 0-1.005-.447-1.005-1s.442-1 .994-1h.011c.552 0 1 .447 1 1s-.448 1-1 1z" fill="#87bcf4"></path><path d="m42.992 22.502h-6.001c-1.654 0-3-1.346-3-3v-8c0-.553.447-1 1-1s1 .447 1 1v8c0 .551.448 1 1 1h6.001c.552 0 1-.449 1-1v-8c0-.553.447-1 1-1s1 .447 1 1v8c0 1.654-1.346 3-3 3z" fill="#545c66"></path><path d="m42.992 20.5h-6.001c-1.654 0-3-1.346-3-3v-10.002c0-1.654 1.346-3 3-3h6.001c1.654 0 3 1.346 3 3v10.002c0 1.654-1.346 3-3 3zm-6.001-14.002c-.552 0-1 .449-1 1v10.002c0 .551.448 1 1 1h6.001c.552 0 1-.449 1-1v-10.002c0-.551-.448-1-1-1z" fill="#656d78"></path><path d="m40.017 17.502c-.553 0-1.005-.447-1.005-1s.442-1 .994-1h.011c.552 0 1 .447 1 1s-.449 1-1 1z" fill="#4a89dc"></path></svg>