<!-- icon666.com - MILLIONS vector ICONS FREE --><svg viewBox="0 0 64 64" xmlns="http://www.w3.org/2000/svg"><path d="m61 29-1 21-.19.09a6.984 6.984 0 0 0 -5.81-3.09 6.66 6.66 0 0 0 -2.11.33l-.89-18.33z" fill="#1b79dc"></path><path d="m13 41 .23.1a8.437 8.437 0 0 0 -1.23 4.4 8.762 8.762 0 0 0 .21 1.86 7 7 0 0 0 -8.24 3.08l-.97-21.44h10z" fill="#1b79dc"></path><path d="m8.936 48-2.029.355 1.095-16.421 1.996.132z" fill="#0057b8"></path><path d="m56 48.914-2-1.914v-14h2z" fill="#0057b8"></path><path d="m41 24v10l-4-2v-8z" fill="#f4c3b1"></path><path d="m3.97 50.44a7 7 0 0 1 8.24-3.08 8.762 8.762 0 0 1 -.21-1.86 8.487 8.487 0 0 1 14.36-6.14 9.05 9.05 0 0 1 .64-1.69 9.982 9.982 0 0 1 9-5.67c.34 0 .67.02 1 .05a10.006 10.006 0 0 1 9 9.95v.03a6.5 6.5 0 0 1 5.89 5.3 6.66 6.66 0 0 1 2.11-.33 7 7 0 0 1 0 14h-44a7 7 0 0 1 -7-7 6.9 6.9 0 0 1 .97-3.56z" fill="#55a4ff"></path><path d="m54 47a6.66 6.66 0 0 0 -2.11.33 6.506 6.506 0 0 0 -2.684-4.144 48.815 48.815 0 0 1 -35.976 15.766 49.214 49.214 0 0 1 -8.872-.817 6.983 6.983 0 0 0 5.642 2.865h44a7 7 0 1 0 0-14z" fill="#297ad6"></path><g fill="#f4c3b1"><path d="m27 29v6a4 4 0 0 1 -4-4v-4h4z"></path><path d="m29 24 1 3h-3-4-4l-3-3 3-2 1 1 3.08.34 3.92.44z"></path><path d="m52 24-1 2-1 2-9 2.08-4 .92v-2-1l4-1.6 6-2.4 1-2z"></path></g><path d="m52 24-4-2 3-6h6.28a2 2 0 0 1 1.98 1.7l1.74 11.3h-10v-3z" fill="#ebebeb"></path><path d="m37 24v5h-10v-2h3l-1-3-2-.22-3.92-.44.59-4.71a3.01 3.01 0 0 1 2.98-2.63h10.7a3.01 3.01 0 0 1 2.98 2.63l.67 5.37z" fill="#ebebeb"></path><path d="m13 21v8h-10l1.74-11.3a2 2 0 0 1 1.98-1.7h8.28l4 6-3 2z" fill="#ebebeb"></path><path d="m27 35v-6h10v3.05c-.33-.03-.66-.05-1-.05a9.982 9.982 0 0 0 -9 5.67z" fill="#1b79dc"></path><path d="m31 6h6v2h-6z" fill="#f4a000"></path><path d="m10 6h6v2h-6z" fill="#6f6f6f"></path><path d="m31.5 6a3.493 3.493 0 0 0 -3.5 3.5v1a3.5 3.5 0 0 0 7 0v-1a3.5 3.5 0 0 0 -3.5-3.5z" fill="#f4c3b1"></path><path d="m10.5 6a3.493 3.493 0 0 0 -3.5 3.5v1a3.5 3.5 0 0 0 7 0v-1a3.5 3.5 0 0 0 -3.5-3.5z" fill="#f4c3b1"></path><path d="m55.978 7.024a3.5 3.5 0 0 0 -5.978 2.476v1a3.5 3.5 0 0 0 7 0v-1a3.522 3.522 0 0 0 -1.022-2.476z" fill="#f4c3b1"></path><path d="m39 43a6.018 6.018 0 0 0 -5.284 3.15 5.636 5.636 0 0 0 -4.045.647 6.991 6.991 0 0 0 -11.671 5.203h2a4.991 4.991 0 0 1 8.157-3.867 5.472 5.472 0 0 0 -1.157 3.367h2a3.471 3.471 0 0 1 1.222-2.651 3.532 3.532 0 0 1 3.654-.569 3.49 3.49 0 0 1 1.537 1.276l1.662-1.112a5.466 5.466 0 0 0 -1.5-1.494 4 4 0 0 1 7.425 2.05h2a6.006 6.006 0 0 0 -6-6z" fill="#297ad6"></path></svg>