<!-- icon666.com - MILLIONS vector ICONS FREE --><svg viewBox="0 0 58 58" xmlns="http://www.w3.org/2000/svg"><g id="030---Online-Consoltation" fill="none"><path id="Path" d="m47 9h6.15c1.0615197.04494901 1.8877777.93820093 1.85 2v37h-17c-.5522847 0-1 .4477153-1 1v1c0 .5522847-.4477153 1-1 1h-14c-.5522847 0-1-.4477153-1-1v-1c0-.5522847-.4477153-1-1-1h-17v-37c.0032948-1.10320187.89679813-1.9967052 2-2z" fill="#ccd0da"></path><path id="Path" d="m47 13h3c.5522847 0 1 .4477153 1 1v26c0 .5522847-.4477153 1-1 1h-42c-.55228475 0-1-.4477153-1-1v-26c0-.5522847.44771525-1 1-1z" fill="#2783ec"></path><path id="Path" d="m11 41v-2c0-2.209139 1.790861-4 4-4h6c2.209139 0 4 1.790861 4 4v2z" fill="#fcc10a"></path><path id="Path" d="m55 53-3.1 3.874c-.5691668.7115116-1.4308471 1.1257951-2.342 1.126h-41.116c-.91115287-.0002049-1.77283318-.4144884-2.342-1.126l-3.1-3.874v-1h52z" fill="#ccd0da"></path><path id="Path" d="m20 32.46v2.54c0 1.1045695-.8954305 2-2 2s-2-.8954305-2-2v-2.54z" fill="#e2ac7f"></path><path id="Path" d="m23 27.5c-.1188074.7487065-.480768 1.437486-1.03 1.96-.2469394 2.0048924-1.9499573 3.5110215-3.97 3.5110215s-3.7230606-1.5061291-3.97-3.5110215c-.549232-.522514-.9111926-1.2112935-1.03-1.96.0017822-.6341275.4021357-1.1986258 1-1.41v-.09c0-2.209139 1.790861-4 4-4s4 1.790861 4 4v.09c.5978643.2113742.9982178.7758725 1 1.41z" fill="#eebd91"></path><path id="Path" d="m33 41v-2c0-2.209139 1.790861-4 4-4h6c2.209139 0 4 1.790861 4 4v2z" fill="#90cf4a"></path><path id="Path" d="m42 32.46v2.54c0 1.1045695-.8954305 2-2 2s-2-.8954305-2-2v-2.54z" fill="#e2ac7f"></path><path id="Path" d="m45 27.5c-.1188074.7487065-.480768 1.437486-1.03 1.96-.2469394 2.0048924-1.9499573 3.5110215-3.97 3.5110215s-3.7230606-1.5061291-3.97-3.5110215c-.549232-.522514-.9111926-1.2112935-1.03-1.96.0017822-.6341275.4021357-1.1986258 1-1.41v-.09c0-2.209139 1.790861-4 4-4s4 1.790861 4 4v.09c.5978643.2113742.9982178.7758725 1 1.41z" fill="#eebd91"></path><path id="Path" d="m27 1v12c0 .5522847-.4477153 1-1 1h-3l-3.22 3.66c-.2022486.215375-.4845497.3375384-.78.3375384s-.5777514-.1221634-.78-.3375384l-3.22-3.66h-3c-.5522847 0-1-.4477153-1-1v-12c0-.55228475.4477153-1 1-1h14c.5522847 0 1 .44771525 1 1z" fill="#ec3a48"></path><path id="Path" d="m47 1v12c0 .5522847-.4477153 1-1 1h-3l-3.22 3.66c-.2022486.215375-.4845497.3375384-.78.3375384s-.5777514-.1221634-.78-.3375384l-3.22-3.66h-3c-.5522847 0-1-.4477153-1-1v-12c0-.55228475.4477153-1 1-1h14c.5522847 0 1 .44771525 1 1z" fill="#ec3a48"></path><path id="Path" d="m58 47v4c-.0032948 1.1032019-.8967981 1.9967052-2 2h-54c-1.10320187-.0032948-1.9967052-.8967981-2-2v-4c.0032948-1.1032019.89679813-1.9967052 2-2h18c.5522847 0 1 .4477153 1 1v1c0 .5522847.4477153 1 1 1h14c.5522847 0 1-.4477153 1-1v-1c0-.5522847.4477153-1 1-1h18c1.1032019.0032948 1.9967052.8967981 2 2z" fill="#b9bfcc"></path><path id="Path" d="m5 50h-1c-.55228475 0-1-.4477153-1-1s.44771525-1 1-1h1c.55228475 0 1 .4477153 1 1s-.44771525 1-1 1z" fill="#d92936"></path><path id="Path" d="m10 50h-1c-.55228475 0-1-.4477153-1-1s.44771525-1 1-1h1c.5522847 0 1 .4477153 1 1s-.4477153 1-1 1z" fill="#0c70dc"></path><g fill="#bc2b3d"><path id="Path" d="m23 6h-8c-.5522847 0-1-.44771525-1-1s.4477153-1 1-1h8c.5522847 0 1 .44771525 1 1s-.4477153 1-1 1z"></path><path id="Path" d="m18 10h-3c-.5522847 0-1-.44771525-1-1s.4477153-1 1-1h3c.5522847 0 1 .44771525 1 1s-.4477153 1-1 1z"></path><path id="Path" d="m43 6h-8c-.5522847 0-1-.44771525-1-1s.4477153-1 1-1h8c.5522847 0 1 .44771525 1 1s-.4477153 1-1 1z"></path><path id="Path" d="m38 10h-3c-.5522847 0-1-.44771525-1-1s.4477153-1 1-1h3c.5522847 0 1 .44771525 1 1s-.4477153 1-1 1z"></path></g></g></svg>