<!-- icon666.com - MILLIONS vector ICONS FREE --><svg id="Layer_1" enable-background="new 0 0 64 64" viewBox="0 0 64 64" xmlns="http://www.w3.org/2000/svg"><g><path d="m7.507 51.119v4.925c0 4.143 3.358 7.5 7.5 7.5s7.5-3.357 7.5-7.5v-4.925z"></path><path d="m41.93 25.178 11.504-11.872c2.883-2.975 2.808-7.723-.167-10.605-2.973-2.883-7.722-2.806-10.604.167l-10.122 10.444z"></path><path d="m54.914 51.44-14.761-18.987-11.759-14.861-5.887 6.076v-15.712c0-4.142-3.358-7.5-7.5-7.5s-7.5 3.358-7.5 7.5v37.256h15.01l4.747-4.898 15.808 20.334c1.658 2.133 4.24 3.126 6.742 2.852 1.334-.146 2.645-.651 3.783-1.535 3.269-2.542 3.859-7.254 1.317-10.525z"></path></g></svg>